# xmcd
#
# Track frame offsets:
#       150
#       12011
#       24838
#       38442
#       52050
#       65294
#       79886
#       93215
#       105285
#       118490
#       132390
#       146676
#       160443
#       173101
#       185832
#       197883
#       211333
#       223911
#
# Disc length: 3150 seconds
#
# Revision: 2
# Processed by: cddbd v1.4PL0 Copyright (c) Steve Scherf et al.
# Submitted via: WhereIsIt 3.51
#
DISCID=020c4c12
DTITLE=Various Artist - Nothing But the Blues: Disc 06
DYEAR=1900
DGENRE=
TTITLE0=She was a dreamer
TTITLE1=Decoration Day blues no. 2
TTITLE2=Western Union man
TTITLE3=Springtime blues
TTITLE4=War time blues
TTITLE5=Sloppy drunk blues
TTITLE6=Shotgun blues
TTITLE7=New early in the morning
TTITLE8=You got to step back
TTITLE9=Drink on little girl
TTITLE10=My baby made a change
TTITLE11=Million years blues
TTITLE12=I been dealing with the devil
TTITLE13=Broken heart blues
TTITLE14=She don't love me that way
TTITLE15=Blues that made me drunk
TTITLE16=Come on baby and take a walk
TTITLE17=I'm gonna catch you soon
EXTD=
EXTT0=
EXTT1=
EXTT2=
EXTT3=
EXTT4=
EXTT5=
EXTT6=
EXTT7=
EXTT8=
EXTT9=
EXTT10=
EXTT11=
EXTT12=
EXTT13=
EXTT14=
EXTT15=
EXTT16=
EXTT17=
PLAYORDER=
